<svg width="26" height="27" viewBox="0 0 26 27" fill="none" xmlns="http://www.w3.org/2000/svg">
<path d="M25.0725 17.4734L25.8014 13.8287L16.4998 9.17795V5.22831C16.5009 4.38283 16.3156 3.54752 15.957 2.78187C15.5984 2.01621 15.0753 1.33905 14.4251 0.798618C14.0251 0.465117 13.5207 0.282471 12.9998 0.282471C12.479 0.282471 11.9746 0.465117 11.5745 0.798618C10.9243 1.33905 10.4013 2.01621 10.0427 2.78187C9.68408 3.54752 9.49872 4.38283 9.49982 5.22831V9.17795L0.198242 13.8287L0.927172 17.4734L9.52345 16.3523L9.94651 20.7943L5.99982 22.4855V26.125H19.9998V22.4855L16.0531 20.7941L16.4762 16.3522L25.0725 17.4734ZM18.2498 23.6395V24.375H7.74982V23.6395L11.8097 21.8995L11.2498 16.0209V14.3622L2.32247 15.5266L2.1764 14.7963L11.2498 10.2596V5.22831C11.2491 4.63947 11.3782 4.05771 11.6279 3.52446C11.8777 2.99122 12.242 2.51961 12.6948 2.14322C12.7804 2.07183 12.8884 2.03272 12.9998 2.03272C13.1113 2.03272 13.2192 2.07183 13.3048 2.14322C13.7577 2.51961 14.1219 2.99122 14.3717 3.52446C14.6215 4.05771 14.7506 4.63947 14.7498 5.22831V10.2596L23.8232 14.7963L23.6772 15.5266L14.7498 14.3622V16.0209L14.1899 21.8995L18.2498 23.6395Z" fill="#787878"/>
</svg>
