<svg width="28" height="28" viewBox="0 0 28 28" fill="none" xmlns="http://www.w3.org/2000/svg">
<path d="M16.0209 25.398L16.6534 24.3296L15.1473 23.4381L14.5149 24.5067L16.0209 25.398ZM11.3469 24.3296L11.9794 25.398L13.4853 24.5067L12.8529 23.4381L11.3469 24.3296ZM14.5149 24.5067C14.2901 24.8866 13.7102 24.8866 13.4853 24.5067L11.9794 25.398C12.8819 26.9229 15.1184 26.9229 16.0209 25.398L14.5149 24.5067ZM12.2502 3.20837H15.7502V1.45837H12.2502V3.20837ZM24.7918 12.25V13.4167H26.5418V12.25H24.7918ZM3.2085 13.4167V12.25H1.4585V13.4167H3.2085ZM1.4585 13.4167C1.4585 14.7637 1.45802 15.8178 1.51602 16.668C1.57458 17.5261 1.6956 18.2402 1.96913 18.9005L3.58592 18.2308C3.41543 17.8192 3.31444 17.3178 3.26198 16.5489C3.20897 15.7721 3.2085 14.7877 3.2085 13.4167H1.4585ZM9.10308 21.2819C7.6384 21.2566 6.87093 21.1635 6.26935 20.9143L5.59966 22.5311C6.53879 22.92 7.60844 23.0064 9.07293 23.0316L9.10308 21.2819ZM1.96913 18.9005C2.64999 20.5442 3.95593 21.8502 5.59966 22.5311L6.26935 20.9143C5.05442 20.411 4.08917 19.4458 3.58592 18.2308L1.96913 18.9005ZM24.7918 13.4167C24.7918 14.7877 24.7914 15.7721 24.7384 16.5489C24.6859 17.3178 24.5849 17.8192 24.4144 18.2308L26.0312 18.9005C26.3048 18.2402 26.4257 17.5261 26.4843 16.668C26.5423 15.8178 26.5418 14.7637 26.5418 13.4167H24.7918ZM18.9273 23.0316C20.3919 23.0064 21.4616 22.92 22.4006 22.5311L21.731 20.9143C21.1294 21.1635 20.3619 21.2566 18.8972 21.2819L18.9273 23.0316ZM24.4144 18.2308C23.9111 19.4458 22.9459 20.411 21.731 20.9143L22.4006 22.5311C24.0443 21.8502 25.3503 20.5442 26.0312 18.9005L24.4144 18.2308ZM15.7502 3.20837C17.6766 3.20837 19.06 3.2093 20.139 3.31189C21.2051 3.41325 21.8834 3.60764 22.4242 3.93903L23.3386 2.44691C22.4766 1.91871 21.4988 1.6833 20.3047 1.56976C19.1236 1.45745 17.6427 1.45837 15.7502 1.45837V3.20837ZM26.5418 12.25C26.5418 10.3575 26.5428 8.87662 26.4304 7.6955C26.3169 6.50136 26.0815 5.52357 25.5533 4.66161L24.0611 5.57598C24.3926 6.11677 24.587 6.7951 24.6883 7.86115C24.7909 8.94021 24.7918 10.3236 24.7918 12.25H26.5418ZM22.4242 3.93903C23.0914 4.34788 23.6523 4.90881 24.0611 5.57598L25.5533 4.66161C25.0002 3.75897 24.2413 3.00005 23.3386 2.44691L22.4242 3.93903ZM12.2502 1.45837C10.3576 1.45837 8.87675 1.45745 7.69562 1.56976C6.50148 1.6833 5.52369 1.91871 4.66173 2.44691L5.57611 3.93903C6.11689 3.60764 6.79523 3.41325 7.86127 3.31189C8.94033 3.2093 10.3237 3.20837 12.2502 3.20837V1.45837ZM3.2085 12.25C3.2085 10.3236 3.20942 8.94021 3.31201 7.86115C3.41337 6.7951 3.60776 6.11677 3.93916 5.57598L2.44704 4.66161C1.91883 5.52357 1.68342 6.50136 1.56988 7.6955C1.45757 8.87662 1.4585 10.3575 1.4585 12.25H3.2085ZM4.66173 2.44691C3.75909 3.00005 3.00018 3.75897 2.44704 4.66161L3.93916 5.57598C4.348 4.90881 4.90894 4.34788 5.57611 3.93903L4.66173 2.44691ZM12.8529 23.4381C12.616 23.038 12.4081 22.6848 12.2059 22.4074C11.9929 22.1153 11.7487 21.8522 11.41 21.6551L10.5302 23.1679C10.5855 23.2 10.6608 23.2587 10.7917 23.4381C10.9333 23.6325 11.0932 23.901 11.3469 24.3296L12.8529 23.4381ZM9.07293 23.0316C9.58521 23.0404 9.90968 23.047 10.157 23.0743C10.3882 23.0999 10.4777 23.1374 10.5302 23.1679L11.41 21.6551C11.0684 21.4564 10.713 21.3751 10.3496 21.3349C10.0025 21.2965 9.58287 21.2902 9.10308 21.2819L9.07293 23.0316ZM16.6534 24.3296C16.907 23.901 17.067 23.6325 17.2086 23.4381C17.3394 23.2587 17.4148 23.2 17.4701 23.1679L16.5903 21.6551C16.2516 21.8522 16.0073 22.1153 15.7944 22.4074C15.5922 22.6848 15.3843 23.038 15.1473 23.4381L16.6534 24.3296ZM18.8972 21.2819C18.4174 21.2902 17.9979 21.2965 17.6507 21.3349C17.2872 21.3751 16.9319 21.4564 16.5903 21.6551L17.4701 23.1679C17.5226 23.1374 17.6122 23.0999 17.8433 23.0743C18.0906 23.047 18.4151 23.0404 18.9273 23.0316L18.8972 21.2819Z" fill="#787878"/>
<path d="M9.3335 12.8334H9.344M13.9897 12.8334H14.0002M18.6563 12.8334H18.6668" stroke="#787878" stroke-width="2" stroke-linecap="round" stroke-linejoin="round"/>
</svg>
