<svg width="19" height="18" viewBox="0 0 19 18" fill="none" xmlns="http://www.w3.org/2000/svg">
<path fill-rule="evenodd" clip-rule="evenodd" d="M15.7191 0.385742C17.0374 0.385742 18.106 1.44569 18.106 2.75319V15.3796C18.106 16.6871 17.0374 17.747 15.7191 17.747H2.98937C1.67116 17.747 0.602539 16.6871 0.602539 15.3796V2.75319C0.602539 1.44569 1.67116 0.385742 2.98937 0.385742H15.7191ZM15.7191 1.96404C16.1586 1.96404 16.5148 2.31736 16.5148 2.75319V15.3796C16.5148 15.8154 16.1586 16.1687 15.7191 16.1687H11.7411V10.6446H13.3929C13.7354 10.6446 14.0394 10.4273 14.1477 10.105L14.5002 9.05619C14.629 8.6729 14.3414 8.27715 13.9341 8.27715H11.7411V6.69887C11.7411 6.30429 12.1389 5.90972 12.5367 5.90972H14.1279C14.5673 5.90972 14.9235 5.5564 14.9235 5.12057V4.57922C14.9235 4.32431 14.7594 4.09577 14.5108 4.03072C13.468 3.75773 12.5367 3.75773 12.5367 3.75773C10.5477 3.75773 9.35426 5.12057 9.35426 6.30429V8.27715H7.76304C7.32364 8.27715 6.96743 8.63045 6.96743 9.0663V9.85544C6.96743 10.2913 7.32363 10.6446 7.76304 10.6446H9.35426V16.1687H2.98937C2.54997 16.1687 2.19376 15.8154 2.19376 15.3796V2.75319C2.19376 2.31736 2.54997 1.96404 2.98937 1.96404H15.7191Z" fill="#1494EB"/>
</svg>
