<svg width="28" height="28" viewBox="0 0 28 28" fill="none" xmlns="http://www.w3.org/2000/svg">
<path d="M9.75893 26.3667H2.79307C2.02365 26.3667 1.3999 25.743 1.3999 24.9735V14.4052C1.3999 14.0357 1.54669 13.6813 1.80795 13.4201L12.9533 2.27476C13.4974 1.73068 14.3795 1.73068 14.9235 2.27476L26.0689 13.4201C26.3301 13.6813 26.477 14.0357 26.477 14.4052V24.9735C26.477 25.743 25.8532 26.3667 25.0838 26.3667H18.1179M9.75893 26.3667H18.1179M9.75893 26.3667V18.0077C9.75893 17.2382 10.3827 16.6145 11.1521 16.6145H16.7248C17.4942 16.6145 18.1179 17.2382 18.1179 18.0077V26.3667" stroke="#5D5D5D" stroke-width="1.39317" stroke-linejoin="round"/>
</svg>
