<svg width="19" height="18" viewBox="0 0 19 18" fill="none" xmlns="http://www.w3.org/2000/svg">
<path fill-rule="evenodd" clip-rule="evenodd" d="M9.29295 13.8013C11.9294 13.8013 14.0666 11.6814 14.0666 9.06643C14.0666 6.45142 11.9294 4.33154 9.29295 4.33154C6.65653 4.33154 4.51929 6.45142 4.51929 9.06643C4.51929 11.6814 6.65653 13.8013 9.29295 13.8013ZM9.29295 12.223C11.0505 12.223 12.4754 10.8097 12.4754 9.06643C12.4754 7.32309 11.0505 5.90984 9.29295 5.90984C7.53534 5.90984 6.11051 7.32309 6.11051 9.06643C6.11051 10.8097 7.53534 12.223 9.29295 12.223Z" fill="#1494EB"/>
<path d="M14.0676 3.54272C13.6282 3.54272 13.272 3.89604 13.272 4.33187C13.272 4.7677 13.6282 5.12102 14.0676 5.12102C14.507 5.12102 14.8632 4.7677 14.8632 4.33187C14.8632 3.89604 14.507 3.54272 14.0676 3.54272Z" fill="#1494EB"/>
<path fill-rule="evenodd" clip-rule="evenodd" d="M1.06205 2.97128C0.541748 3.98413 0.541748 5.31003 0.541748 7.96181V10.1714C0.541748 12.8232 0.541748 14.1491 1.06205 15.1619C1.51971 16.0529 2.24999 16.7772 3.14822 17.2311C4.16936 17.7473 5.50611 17.7473 8.17961 17.7473H10.4073C13.0808 17.7473 14.4176 17.7473 15.4387 17.2311C16.3369 16.7772 17.0672 16.0529 17.5249 15.1619C18.0452 14.1491 18.0452 12.8232 18.0452 10.1714V7.96181C18.0452 5.31003 18.0452 3.98413 17.5249 2.97128C17.0672 2.08035 16.3369 1.35601 15.4387 0.902058C14.4176 0.385986 13.0808 0.385986 10.4073 0.385986H8.17961C5.50611 0.385986 4.16936 0.385986 3.14822 0.902058C2.24999 1.35601 1.51971 2.08035 1.06205 2.97128ZM10.4073 1.96428H8.17961C6.8166 1.96428 5.89004 1.96551 5.17386 2.02355C4.47623 2.08008 4.11948 2.18255 3.87062 2.30833C3.2718 2.61097 2.78495 3.09386 2.47983 3.68781C2.35303 3.93466 2.24972 4.28851 2.19272 4.98047C2.13421 5.69084 2.13297 6.60987 2.13297 7.96181V10.1714C2.13297 11.5234 2.13421 12.4424 2.19272 13.1528C2.24972 13.8448 2.35303 14.1986 2.47983 14.4455C2.78495 15.0394 3.2718 15.5222 3.87062 15.8249C4.11948 15.9507 4.47623 16.0532 5.17386 16.1097C5.89004 16.1677 6.8166 16.169 8.17961 16.169H10.4073C11.7704 16.169 12.6969 16.1677 13.4131 16.1097C14.1107 16.0532 14.4675 15.9507 14.7163 15.8249C15.3151 15.5222 15.802 15.0394 16.1071 14.4455C16.2339 14.1986 16.3372 13.8448 16.3942 13.1528C16.4527 12.4424 16.454 11.5234 16.454 10.1714V7.96181C16.454 6.60987 16.4527 5.69084 16.3942 4.98047C16.3372 4.28851 16.2339 3.93466 16.1071 3.68781C15.802 3.09386 15.3151 2.61097 14.7163 2.30833C14.4675 2.18255 14.1107 2.08008 13.4131 2.02355C12.6969 1.96551 11.7704 1.96428 10.4073 1.96428Z" fill="#1494EB"/>
</svg>
