<svg width="18" height="18" viewBox="0 0 18 18" fill="none" xmlns="http://www.w3.org/2000/svg">
<path d="M4.8565 5.91017C5.51561 5.91017 6.04992 5.3802 6.04992 4.72645C6.04992 4.07269 5.51561 3.54272 4.8565 3.54272C4.19739 3.54272 3.66309 4.07269 3.66309 4.72645C3.66309 5.3802 4.19739 5.91017 4.8565 5.91017Z" fill="#1494EB"/>
<path d="M3.66309 7.48837C3.66309 7.05254 4.0193 6.69922 4.4587 6.69922H5.25431C5.69371 6.69922 6.04992 7.05253 6.04992 7.48837V13.8016C6.04992 14.2374 5.69371 14.5907 5.25431 14.5907H4.4587C4.0193 14.5907 3.66309 14.2374 3.66309 13.8016V7.48837Z" fill="#1494EB"/>
<path d="M8.43721 14.5907H9.23282C9.67224 14.5907 10.0284 14.2374 10.0284 13.8016V10.2504C10.0284 9.06666 12.4153 8.27752 12.4153 9.85581V13.8019C12.4153 14.2377 12.7715 14.5907 13.2109 14.5907H14.0065C14.4459 14.5907 14.8021 14.2374 14.8021 13.8016V9.06666C14.8021 7.48837 13.6087 6.69922 12.0175 6.69922C10.4262 6.69922 10.0284 7.88294 10.0284 7.88294V7.48837C10.0284 7.05253 9.67224 6.69922 9.23282 6.69922H8.43721C7.9978 6.69922 7.6416 7.05254 7.6416 7.48837V13.8016C7.6416 14.2374 7.9978 14.5907 8.43721 14.5907Z" fill="#1494EB"/>
<path fill-rule="evenodd" clip-rule="evenodd" d="M15.5981 0.385986C16.9163 0.385986 17.9849 1.44593 17.9849 2.75343V15.3798C17.9849 16.6873 16.9163 17.7473 15.5981 17.7473H2.86828C1.55007 17.7473 0.481445 16.6873 0.481445 15.3798V2.75343C0.481445 1.44593 1.55007 0.385986 2.86828 0.385986H15.5981ZM15.5981 1.96428C16.0375 1.96428 16.3937 2.3176 16.3937 2.75343V15.3798C16.3937 15.8157 16.0375 16.169 15.5981 16.169H2.86828C2.42888 16.169 2.07267 15.8157 2.07267 15.3798V2.75343C2.07267 2.3176 2.42888 1.96428 2.86828 1.96428H15.5981Z" fill="#1494EB"/>
</svg>
