<svg width="12" height="17" viewBox="0 0 12 17" fill="none" xmlns="http://www.w3.org/2000/svg">
<path d="M1.74605 9.75464L1.72398 9.71395L1.6968 9.67647C1.07838 8.82364 0.709615 7.78794 0.709615 6.66078C0.709615 3.78698 3.03966 1.45693 5.91346 1.45693C8.78726 1.45693 11.1173 3.78698 11.1173 6.66078C11.1173 7.78794 10.7485 8.82364 10.1301 9.67647L10.103 9.71395L10.0809 9.75463C10.065 9.78382 10.0528 9.8108 10.0434 9.83357L6.14303 15.6841C6.09192 15.7608 6.00558 15.8069 5.91346 15.8069C5.82134 15.8069 5.735 15.7608 5.6839 15.6841L1.78359 9.83363C1.77423 9.81093 1.76193 9.78391 1.74605 9.75464ZM10.014 9.91599C10.0139 9.9163 10.014 9.91623 10.0141 9.91584L10.014 9.91599ZM3.23269 6.66078C3.23269 8.14126 4.43298 9.34155 5.91346 9.34155C7.39394 9.34155 8.59423 8.14126 8.59423 6.66078C8.59423 5.1803 7.39394 3.98001 5.91346 3.98001C4.43298 3.98001 3.23269 5.1803 3.23269 6.66078Z" stroke="#1494EB" stroke-width="1.41923"/>
</svg>
