<svg width="17" height="17" viewBox="0 0 17 17" fill="none" xmlns="http://www.w3.org/2000/svg">
<path fill-rule="evenodd" clip-rule="evenodd" d="M12.3752 16.2247C10.8441 15.8411 7.70955 14.7596 4.86788 11.9179C2.02624 9.07631 0.944758 5.9418 0.561137 4.41067C0.340679 3.53076 0.737671 2.68166 1.41081 2.20084L3.17551 0.940339C4.20806 0.202815 5.64445 0.453083 6.36671 1.49636L7.47769 3.10113C7.94928 3.78233 7.78663 4.71597 7.11243 5.19754L6.22657 5.8303C6.36064 6.34314 6.77764 7.39631 8.08359 8.70226C9.38954 10.0082 10.4427 10.4252 10.9555 10.5592L11.5883 9.67335C12.0699 8.99923 13.0035 8.8365 13.6847 9.30809L15.2895 10.4191C16.3328 11.1414 16.583 12.5777 15.8455 13.6103L14.585 15.375C14.1041 16.0482 13.2551 16.4452 12.3752 16.2247ZM5.93978 10.8461C8.52396 13.4302 11.3757 14.4115 12.7436 14.7543C12.9435 14.8043 13.1852 14.7266 13.3514 14.4939L14.612 12.7292C14.8578 12.3851 14.7744 11.9063 14.4266 11.6655L12.8218 10.5545L12.1428 11.5052C11.8653 11.8937 11.3521 12.1984 10.7545 12.0695C10.0087 11.9085 8.63 11.3925 7.0117 9.77416C5.3934 8.15586 4.8773 6.77714 4.71637 6.03132C4.58745 5.43375 4.89217 4.92055 5.28068 4.64304L6.23134 3.96399L5.12035 2.35922C4.87959 2.01146 4.40079 1.92804 4.05662 2.17388L2.29192 3.43438C2.0592 3.60061 1.9815 3.84232 2.03159 4.04225C2.37432 5.41016 3.35564 8.26189 5.93978 10.8461Z" fill="#1494EB"/>
</svg>
