<svg width="28" height="28" viewBox="0 0 28 28" fill="none" xmlns="http://www.w3.org/2000/svg">
<path d="M14.141 14.91C14.0593 14.8983 13.9543 14.8983 13.861 14.91C11.8076 14.84 10.1743 13.16 10.1743 11.095C10.1743 8.98331 11.8776 7.26831 14.001 7.26831C16.1126 7.26831 17.8276 8.98331 17.8276 11.095C17.816 13.16 16.1943 14.84 14.141 14.91Z" stroke="#787878" stroke-width="1.7" stroke-linecap="round" stroke-linejoin="round"/>
<path d="M21.8629 22.6101C19.7863 24.5117 17.0329 25.6667 13.9996 25.6667C10.9662 25.6667 8.2129 24.5117 6.13623 22.6101C6.2529 21.5134 6.9529 20.4401 8.20123 19.6001C11.3979 17.4767 16.6246 17.4767 19.7979 19.6001C21.0463 20.4401 21.7463 21.5134 21.8629 22.6101Z" stroke="#787878" stroke-width="1.7" stroke-linecap="round" stroke-linejoin="round"/>
<path d="M14.0002 25.6667C20.4434 25.6667 25.6668 20.4433 25.6668 14C25.6668 7.55672 20.4434 2.33337 14.0002 2.33337C7.55684 2.33337 2.3335 7.55672 2.3335 14C2.3335 20.4433 7.55684 25.6667 14.0002 25.6667Z" stroke="#787878" stroke-width="1.7" stroke-linecap="round" stroke-linejoin="round"/>
</svg>
