<svg width="21" height="21" viewBox="0 0 21 21" fill="none" xmlns="http://www.w3.org/2000/svg">
<path d="M8.64395 12.3949L19.735 1.30786M8.95922 12.8934L11.4741 17.9234C12.0819 19.1388 12.3858 19.7466 12.7686 19.9096C13.1008 20.051 13.4806 20.0254 13.7909 19.8407C14.1484 19.6278 14.3679 18.9847 14.8071 17.6986L19.5589 3.78262C19.9416 2.66203 20.1328 2.10173 20.0019 1.73108C19.8879 1.40864 19.6343 1.155 19.3119 1.04108C18.9412 0.910129 18.381 1.10145 17.2603 1.48409L3.34428 6.23592C2.05821 6.67506 1.41517 6.89464 1.2023 7.25213C1.01756 7.56236 0.991963 7.94214 1.13339 8.2743C1.29637 8.65713 1.90413 8.96108 3.11964 9.56876L8.14951 12.0838C8.34984 12.1839 8.44999 12.2339 8.53667 12.3008C8.61374 12.3602 8.68276 12.4293 8.74206 12.5062C8.80905 12.593 8.85907 12.6932 8.95922 12.8934Z" stroke="white" stroke-width="1.33" stroke-linecap="round" stroke-linejoin="round"/>
</svg>
