<svg width="24" height="18" viewBox="0 0 24 18" fill="none" xmlns="http://www.w3.org/2000/svg">
<path fill-rule="evenodd" clip-rule="evenodd" d="M9.89725 4.37098C9.59629 4.2004 9.22653 4.20162 8.92671 4.37419C8.62691 4.54676 8.44238 4.86459 8.44238 5.20841V12.9245C8.44238 13.2684 8.62691 13.5862 8.92671 13.7587C9.22653 13.9313 9.59629 13.9325 9.89725 13.7619L16.7041 9.90386C17.0071 9.73218 17.1941 9.41263 17.1941 9.06647C17.1941 8.7203 17.0071 8.40076 16.7041 8.22908L9.89725 4.37098ZM14.2617 9.06647L10.3872 11.2625V6.87044L14.2617 9.06647Z" fill="#1494EB"/>
<path fill-rule="evenodd" clip-rule="evenodd" d="M0.662109 9.06637C0.662109 5.4497 0.662109 3.64137 1.59068 2.37367C1.89057 1.96427 2.25356 1.60422 2.66632 1.30677C3.94439 0.385742 5.76754 0.385742 9.41383 0.385742H15.2483C18.8946 0.385742 20.7177 0.385742 21.9958 1.30677C22.4086 1.60422 22.7716 1.96427 23.0715 2.37367C24 3.64137 24 5.4497 24 9.06637C24 12.683 24 14.4914 23.0715 15.759C22.7716 16.1685 22.4086 16.5285 21.9958 16.826C20.7177 17.747 18.8946 17.747 15.2483 17.747H9.41383C5.76754 17.747 3.94439 17.747 2.66632 16.826C2.25356 16.5285 1.89057 16.1685 1.59068 15.759C0.662109 14.4914 0.662109 12.683 0.662109 9.06637ZM9.41383 2.31477H15.2483C17.1148 2.31477 18.3584 2.31742 19.3006 2.41868C20.2065 2.51603 20.6005 2.68561 20.8527 2.86739C21.1003 3.04586 21.3181 3.26189 21.4981 3.50753C21.6813 3.75773 21.8523 4.14844 21.9505 5.04694C22.0526 5.98154 22.0552 7.21509 22.0552 9.06637C22.0552 10.9177 22.0526 12.1512 21.9505 13.0858C21.8523 13.9843 21.6813 14.3751 21.4981 14.6253C21.3181 14.8708 21.1003 15.0869 20.8527 15.2654C20.6005 15.4471 20.2065 15.6167 19.3006 15.7141C18.3584 15.8154 17.1148 15.818 15.2483 15.818H9.41383C7.54736 15.818 6.30373 15.8154 5.36148 15.7141C4.45562 15.6167 4.06171 15.4471 3.80946 15.2654C3.56181 15.0869 3.34401 14.8708 3.16408 14.6253C2.98081 14.3751 2.80984 13.9843 2.71169 13.0858C2.60961 12.1512 2.60694 10.9177 2.60694 9.06637C2.60694 7.21509 2.60961 5.98154 2.71169 5.04694C2.80984 4.14844 2.98081 3.75773 3.16408 3.50753C3.34401 3.26189 3.56181 3.04586 3.80946 2.86739C4.06171 2.68561 4.45562 2.51603 5.36148 2.41868C6.30373 2.31742 7.54736 2.31477 9.41383 2.31477Z" fill="#1494EB"/>
</svg>
